<?xml version="1.0" encoding="utf-8"?>
<!-- Generator: Adobe Illustrator 15.0.0, SVG Export Plug-In . SVG Version: 6.00 Build 0)  -->
<!DOCTYPE svg PUBLIC "-//W3C//DTD SVG 1.1//EN" "http://www.w3.org/Graphics/SVG/1.1/DTD/svg11.dtd">
<svg version="1.1" id="Layer_1" xmlns="http://www.w3.org/2000/svg" xmlns:xlink="http://www.w3.org/1999/xlink" x="0px" y="0px"
	 width="160px" height="62.33px" viewBox="207.5 80.835 160 62.33" enable-background="new 207.5 80.835 160 62.33"
	 xml:space="preserve">
<g>
	<path fill="#951B1E" d="M365.553,143.166H209.448c-1.076,0-1.948-0.873-1.948-1.948V82.783c0-1.076,0.872-1.948,1.948-1.948H365.83
		c0.922,0,1.67,0.748,1.67,1.669v58.713C367.5,142.293,366.628,143.166,365.553,143.166"/>
	<path fill="#FFFFFF" d="M223.958,119.178c0,5.287,4.118,7.346,8.793,7.346c3.061,0,7.736-0.89,7.736-4.952
		c0-4.285-5.955-5.009-11.798-6.567c-5.899-1.559-11.854-3.839-11.854-11.297c0-8.125,7.68-12.021,14.858-12.021
		c8.292,0,15.917,3.617,15.917,12.799h-8.459c-0.278-4.786-3.673-6.01-7.847-6.01c-2.783,0-6.01,1.169-6.01,4.508
		c0,3.061,1.892,3.451,11.854,6.01c2.894,0.723,11.798,2.56,11.798,11.576c0,7.29-5.732,12.745-16.528,12.745
		c-8.792,0-17.029-4.342-16.918-14.137H223.958L223.958,119.178z"/>
	<polygon fill="#FFFFFF" points="291.963,132.367 283.282,132.367 276.548,105.321 276.437,105.321 269.814,132.367 
		260.966,132.367 250.447,92.633 259.185,92.633 265.473,119.68 265.585,119.68 272.485,92.633 280.666,92.633 287.456,120.014 
		287.567,120.014 294.078,92.633 302.648,92.633 	"/>
	<polygon fill="#FFFFFF" points="306.655,92.633 334.592,92.633 334.592,99.979 315.393,99.979 315.393,109.161 332.032,109.161 
		332.032,115.951 315.393,115.951 315.393,132.367 306.655,132.367 	"/>
	<rect x="339.656" y="92.633" fill="#FFFFFF" width="8.737" height="39.734"/>
	<path fill="#FFFFFF" d="M357.324,92.117c2.824,0,5.343,2.031,5.343,5.19c0,3.172-2.519,5.218-5.343,5.218s-5.344-2.045-5.344-5.218
		C351.98,94.148,354.5,92.117,357.324,92.117 M357.324,101.412c2.156,0,3.924-1.725,3.924-4.104c0-2.365-1.768-4.077-3.924-4.077
		c-2.185,0-3.924,1.711-3.924,4.077C353.4,99.687,355.14,101.412,357.324,101.412 M355.25,94.386h2.199
		c1.461,0,2.281,0.459,2.281,1.725c0,1.071-0.668,1.489-1.529,1.558l1.558,2.546h-1.21l-1.42-2.491h-0.724v2.491h-1.155V94.386
		L355.25,94.386z M356.405,96.82h1.03c0.654,0,1.141-0.098,1.141-0.807c0-0.626-0.668-0.723-1.197-0.723h-0.974V96.82L356.405,96.82
		z"/>
</g>
</svg>
